<mxfile host="app.diagrams.net" modified="2021-06-21T09:17:27.817Z" agent="5.0 (Windows NT 10.0; Win64; x64) AppleWebKit/537.36 (KHTML, like Gecko) Chrome/91.0.4472.106 Safari/537.36" etag="u7_0xhHX-jYUoojxMLjw" version="14.8.0" type="github">
  <diagram id="6I0OCvxSQrVGMHxT2VVA" name="Page-1">
    <mxGraphModel dx="2820" dy="1220" grid="1" gridSize="10" guides="1" tooltips="1" connect="1" arrows="1" fold="1" page="1" pageScale="1" pageWidth="850" pageHeight="1100" math="0" shadow="0">
      <root>
        <mxCell id="0" />
        <mxCell id="1" parent="0" />
        <mxCell id="PqPWKizBNkVSZj4csztq-29" value="" style="whiteSpace=wrap;html=1;strokeColor=none;strokeWidth=1;fillColor=#f5f5f5;fontSize=14;" vertex="1" parent="1">
          <mxGeometry x="189" y="970" width="1079" height="310" as="geometry" />
        </mxCell>
        <mxCell id="dKdSaXE48SgPbhcamS2K-30" value="" style="whiteSpace=wrap;html=1;strokeColor=none;strokeWidth=1;fillColor=#f5f5f5;fontSize=14;" parent="1" vertex="1">
          <mxGeometry x="190" y="660" width="1079" height="310" as="geometry" />
        </mxCell>
        <mxCell id="PqPWKizBNkVSZj4csztq-11" style="edgeStyle=orthogonalEdgeStyle;rounded=0;orthogonalLoop=1;jettySize=auto;html=1;exitX=0.5;exitY=0;exitDx=0;exitDy=0;" edge="1" parent="1" source="dKdSaXE48SgPbhcamS2K-31" target="PqPWKizBNkVSZj4csztq-8">
          <mxGeometry relative="1" as="geometry">
            <Array as="points">
              <mxPoint x="730" y="510" />
              <mxPoint x="903" y="510" />
            </Array>
          </mxGeometry>
        </mxCell>
        <mxCell id="dKdSaXE48SgPbhcamS2K-31" value="" style="whiteSpace=wrap;html=1;strokeColor=none;strokeWidth=1;fillColor=#f5f5f5;fontSize=14;" parent="1" vertex="1">
          <mxGeometry x="190" y="500" width="1079" height="170" as="geometry" />
        </mxCell>
        <mxCell id="dKdSaXE48SgPbhcamS2K-32" value="" style="whiteSpace=wrap;html=1;strokeColor=none;strokeWidth=1;fillColor=#f5f5f5;fontSize=14;" parent="1" vertex="1">
          <mxGeometry x="189" y="230" width="1080" height="270" as="geometry" />
        </mxCell>
        <mxCell id="PqPWKizBNkVSZj4csztq-48" style="edgeStyle=orthogonalEdgeStyle;rounded=0;orthogonalLoop=1;jettySize=auto;html=1;exitX=0;exitY=0.5;exitDx=0;exitDy=0;entryX=1;entryY=1;entryDx=0;entryDy=0;" edge="1" parent="1" source="dKdSaXE48SgPbhcamS2K-58" target="dKdSaXE48SgPbhcamS2K-31">
          <mxGeometry relative="1" as="geometry">
            <Array as="points">
              <mxPoint x="1320" y="716" />
              <mxPoint x="1320" y="670" />
            </Array>
          </mxGeometry>
        </mxCell>
        <mxCell id="PqPWKizBNkVSZj4csztq-49" style="edgeStyle=orthogonalEdgeStyle;rounded=0;orthogonalLoop=1;jettySize=auto;html=1;exitX=0;exitY=0.5;exitDx=0;exitDy=0;entryX=1;entryY=0.5;entryDx=0;entryDy=0;" edge="1" parent="1" source="dKdSaXE48SgPbhcamS2K-58" target="dKdSaXE48SgPbhcamS2K-30">
          <mxGeometry relative="1" as="geometry">
            <Array as="points">
              <mxPoint x="1320" y="716" />
              <mxPoint x="1320" y="815" />
            </Array>
          </mxGeometry>
        </mxCell>
        <mxCell id="dKdSaXE48SgPbhcamS2K-58" value="&lt;font style=&quot;font-size: 18px&quot;&gt;组件层&lt;/font&gt;" style="text;html=1;align=center;verticalAlign=middle;whiteSpace=wrap;fontSize=14;fillColor=#f5f5f5;strokeColor=#666666;fontColor=#333333;" parent="1" vertex="1">
          <mxGeometry x="1360" y="670" width="240" height="91" as="geometry" />
        </mxCell>
        <mxCell id="PqPWKizBNkVSZj4csztq-46" style="edgeStyle=orthogonalEdgeStyle;rounded=0;orthogonalLoop=1;jettySize=auto;html=1;exitX=0;exitY=0.5;exitDx=0;exitDy=0;entryX=1;entryY=0.25;entryDx=0;entryDy=0;" edge="1" parent="1" source="dKdSaXE48SgPbhcamS2K-59" target="dKdSaXE48SgPbhcamS2K-31">
          <mxGeometry relative="1" as="geometry" />
        </mxCell>
        <mxCell id="PqPWKizBNkVSZj4csztq-47" style="edgeStyle=orthogonalEdgeStyle;rounded=0;orthogonalLoop=1;jettySize=auto;html=1;entryX=1;entryY=0.75;entryDx=0;entryDy=0;" edge="1" parent="1" source="dKdSaXE48SgPbhcamS2K-59" target="dKdSaXE48SgPbhcamS2K-31">
          <mxGeometry relative="1" as="geometry" />
        </mxCell>
        <mxCell id="dKdSaXE48SgPbhcamS2K-59" value="&lt;font style=&quot;font-size: 18px&quot;&gt;项目层&lt;/font&gt;" style="text;html=1;strokeColor=#666666;fillColor=#f5f5f5;align=center;verticalAlign=middle;whiteSpace=wrap;fontSize=14;fontColor=#333333;" parent="1" vertex="1">
          <mxGeometry x="1360" y="521" width="240" height="89" as="geometry" />
        </mxCell>
        <mxCell id="PqPWKizBNkVSZj4csztq-44" style="edgeStyle=orthogonalEdgeStyle;rounded=0;orthogonalLoop=1;jettySize=auto;html=1;exitX=0;exitY=0.5;exitDx=0;exitDy=0;entryX=1;entryY=0.25;entryDx=0;entryDy=0;" edge="1" parent="1" source="dKdSaXE48SgPbhcamS2K-60" target="dKdSaXE48SgPbhcamS2K-32">
          <mxGeometry relative="1" as="geometry" />
        </mxCell>
        <mxCell id="PqPWKizBNkVSZj4csztq-45" style="edgeStyle=orthogonalEdgeStyle;rounded=0;orthogonalLoop=1;jettySize=auto;html=1;exitX=0;exitY=0.5;exitDx=0;exitDy=0;entryX=1;entryY=0.75;entryDx=0;entryDy=0;" edge="1" parent="1" source="dKdSaXE48SgPbhcamS2K-60" target="dKdSaXE48SgPbhcamS2K-32">
          <mxGeometry relative="1" as="geometry" />
        </mxCell>
        <mxCell id="dKdSaXE48SgPbhcamS2K-60" value="&lt;font style=&quot;font-size: 18px&quot;&gt;微服务框架&lt;/font&gt;" style="text;html=1;strokeColor=#666666;fillColor=#f5f5f5;align=center;verticalAlign=middle;whiteSpace=wrap;fontSize=14;fontColor=#333333;" parent="1" vertex="1">
          <mxGeometry x="1370" y="327.5" width="220" height="75" as="geometry" />
        </mxCell>
        <mxCell id="dKdSaXE48SgPbhcamS2K-63" value="集团计费3.0前端" style="text;strokeColor=none;fillColor=none;html=1;fontSize=24;fontStyle=1;verticalAlign=middle;align=center;" parent="1" vertex="1">
          <mxGeometry x="-65.5" y="80" width="1590" height="40" as="geometry" />
        </mxCell>
        <mxCell id="PqPWKizBNkVSZj4csztq-5" style="edgeStyle=orthogonalEdgeStyle;rounded=0;orthogonalLoop=1;jettySize=auto;html=1;exitX=0.5;exitY=1;exitDx=0;exitDy=0;entryX=0.5;entryY=0;entryDx=0;entryDy=0;" edge="1" parent="1" source="PqPWKizBNkVSZj4csztq-1" target="PqPWKizBNkVSZj4csztq-4">
          <mxGeometry relative="1" as="geometry" />
        </mxCell>
        <mxCell id="PqPWKizBNkVSZj4csztq-1" value="&lt;font style=&quot;font-size: 18px&quot;&gt;qiankun基座&lt;br&gt;node统一打包命令&lt;br&gt;&lt;/font&gt;" style="rounded=0;whiteSpace=wrap;html=1;" vertex="1" parent="1">
          <mxGeometry x="622.25" y="260" width="215.5" height="60" as="geometry" />
        </mxCell>
        <mxCell id="PqPWKizBNkVSZj4csztq-9" style="edgeStyle=orthogonalEdgeStyle;rounded=0;orthogonalLoop=1;jettySize=auto;html=1;entryX=0.5;entryY=0;entryDx=0;entryDy=0;exitX=0.5;exitY=1;exitDx=0;exitDy=0;" edge="1" parent="1" source="PqPWKizBNkVSZj4csztq-3" target="PqPWKizBNkVSZj4csztq-7">
          <mxGeometry relative="1" as="geometry">
            <Array as="points">
              <mxPoint x="730" y="510" />
              <mxPoint x="558" y="510" />
            </Array>
          </mxGeometry>
        </mxCell>
        <mxCell id="PqPWKizBNkVSZj4csztq-12" style="edgeStyle=orthogonalEdgeStyle;rounded=0;orthogonalLoop=1;jettySize=auto;html=1;exitX=0.5;exitY=1;exitDx=0;exitDy=0;" edge="1" parent="1" source="PqPWKizBNkVSZj4csztq-3" target="PqPWKizBNkVSZj4csztq-8">
          <mxGeometry relative="1" as="geometry" />
        </mxCell>
        <mxCell id="PqPWKizBNkVSZj4csztq-3" value="&lt;font style=&quot;font-size: 18px&quot;&gt;vue-router（统一管理）&lt;/font&gt;" style="rounded=1;whiteSpace=wrap;html=1;" vertex="1" parent="1">
          <mxGeometry x="614.5" y="420" width="230" height="60" as="geometry" />
        </mxCell>
        <mxCell id="PqPWKizBNkVSZj4csztq-6" style="edgeStyle=orthogonalEdgeStyle;rounded=0;orthogonalLoop=1;jettySize=auto;html=1;exitX=0.5;exitY=1;exitDx=0;exitDy=0;entryX=0.5;entryY=0;entryDx=0;entryDy=0;" edge="1" parent="1" source="PqPWKizBNkVSZj4csztq-4" target="PqPWKizBNkVSZj4csztq-3">
          <mxGeometry relative="1" as="geometry" />
        </mxCell>
        <mxCell id="PqPWKizBNkVSZj4csztq-4" value="&lt;font style=&quot;font-size: 18px&quot;&gt;路由鉴权&lt;/font&gt;" style="ellipse;whiteSpace=wrap;html=1;" vertex="1" parent="1">
          <mxGeometry x="685" y="340" width="90" height="60" as="geometry" />
        </mxCell>
        <mxCell id="PqPWKizBNkVSZj4csztq-17" style="edgeStyle=orthogonalEdgeStyle;rounded=0;orthogonalLoop=1;jettySize=auto;html=1;exitX=0.5;exitY=1;exitDx=0;exitDy=0;entryX=0.5;entryY=0;entryDx=0;entryDy=0;" edge="1" parent="1" source="PqPWKizBNkVSZj4csztq-7" target="PqPWKizBNkVSZj4csztq-14">
          <mxGeometry relative="1" as="geometry" />
        </mxCell>
        <mxCell id="PqPWKizBNkVSZj4csztq-18" style="edgeStyle=orthogonalEdgeStyle;rounded=0;orthogonalLoop=1;jettySize=auto;html=1;exitX=0.5;exitY=1;exitDx=0;exitDy=0;entryX=0.5;entryY=0;entryDx=0;entryDy=0;" edge="1" parent="1" source="PqPWKizBNkVSZj4csztq-7" target="PqPWKizBNkVSZj4csztq-15">
          <mxGeometry relative="1" as="geometry">
            <Array as="points">
              <mxPoint x="558" y="630" />
              <mxPoint x="720" y="630" />
            </Array>
          </mxGeometry>
        </mxCell>
        <mxCell id="PqPWKizBNkVSZj4csztq-43" style="edgeStyle=orthogonalEdgeStyle;rounded=0;orthogonalLoop=1;jettySize=auto;html=1;exitX=0.5;exitY=1;exitDx=0;exitDy=0;" edge="1" parent="1" source="PqPWKizBNkVSZj4csztq-7">
          <mxGeometry relative="1" as="geometry">
            <mxPoint x="558.1428571428573" y="619.9999999999998" as="targetPoint" />
          </mxGeometry>
        </mxCell>
        <mxCell id="PqPWKizBNkVSZj4csztq-7" value="&lt;font style=&quot;font-size: 18px&quot;&gt;主应用main，&lt;br&gt;（原业务系统）&lt;br&gt;webpack5+vue2.6+elementUI+js&lt;/font&gt;" style="rounded=0;whiteSpace=wrap;html=1;" vertex="1" parent="1">
          <mxGeometry x="417.5" y="541" width="280" height="69" as="geometry" />
        </mxCell>
        <mxCell id="PqPWKizBNkVSZj4csztq-19" style="edgeStyle=orthogonalEdgeStyle;rounded=0;orthogonalLoop=1;jettySize=auto;html=1;exitX=0.5;exitY=1;exitDx=0;exitDy=0;" edge="1" parent="1" source="PqPWKizBNkVSZj4csztq-8" target="PqPWKizBNkVSZj4csztq-16">
          <mxGeometry relative="1" as="geometry" />
        </mxCell>
        <mxCell id="PqPWKizBNkVSZj4csztq-8" value="&lt;font style=&quot;font-size: 18px&quot;&gt;子应用subapp&lt;br&gt;（可视化编辑器lowCode）&lt;br&gt;vite2+vue3+elementUI-PLUS+TS&lt;/font&gt;" style="rounded=0;whiteSpace=wrap;html=1;" vertex="1" parent="1">
          <mxGeometry x="752.5" y="541" width="300" height="69" as="geometry" />
        </mxCell>
        <mxCell id="PqPWKizBNkVSZj4csztq-14" value="&lt;font style=&quot;font-size: 18px&quot;&gt;原lowCode组件&lt;/font&gt;" style="rounded=1;whiteSpace=wrap;html=1;" vertex="1" parent="1">
          <mxGeometry x="497.5" y="650" width="120" height="60" as="geometry" />
        </mxCell>
        <mxCell id="PqPWKizBNkVSZj4csztq-24" style="edgeStyle=orthogonalEdgeStyle;rounded=0;orthogonalLoop=1;jettySize=auto;html=1;exitX=0.5;exitY=1;exitDx=0;exitDy=0;" edge="1" parent="1" source="PqPWKizBNkVSZj4csztq-15" target="PqPWKizBNkVSZj4csztq-22">
          <mxGeometry relative="1" as="geometry" />
        </mxCell>
        <mxCell id="PqPWKizBNkVSZj4csztq-25" style="edgeStyle=orthogonalEdgeStyle;rounded=0;orthogonalLoop=1;jettySize=auto;html=1;exitX=0.5;exitY=1;exitDx=0;exitDy=0;entryX=0.5;entryY=0;entryDx=0;entryDy=0;" edge="1" parent="1" source="PqPWKizBNkVSZj4csztq-15" target="PqPWKizBNkVSZj4csztq-23">
          <mxGeometry relative="1" as="geometry" />
        </mxCell>
        <mxCell id="PqPWKizBNkVSZj4csztq-15" value="&lt;font style=&quot;font-size: 18px&quot;&gt;业务组件&lt;/font&gt;" style="rounded=1;whiteSpace=wrap;html=1;" vertex="1" parent="1">
          <mxGeometry x="660" y="700" width="120" height="60" as="geometry" />
        </mxCell>
        <mxCell id="PqPWKizBNkVSZj4csztq-20" style="edgeStyle=orthogonalEdgeStyle;rounded=0;orthogonalLoop=1;jettySize=auto;html=1;exitX=0;exitY=0.5;exitDx=0;exitDy=0;entryX=0.5;entryY=0;entryDx=0;entryDy=0;" edge="1" parent="1" source="PqPWKizBNkVSZj4csztq-16" target="PqPWKizBNkVSZj4csztq-15">
          <mxGeometry relative="1" as="geometry" />
        </mxCell>
        <mxCell id="PqPWKizBNkVSZj4csztq-16" value="&lt;font style=&quot;font-size: 18px&quot;&gt;新lowCode组件&lt;/font&gt;" style="rounded=1;whiteSpace=wrap;html=1;" vertex="1" parent="1">
          <mxGeometry x="842.5" y="650" width="120" height="60" as="geometry" />
        </mxCell>
        <mxCell id="PqPWKizBNkVSZj4csztq-27" style="edgeStyle=orthogonalEdgeStyle;rounded=0;orthogonalLoop=1;jettySize=auto;html=1;exitX=1;exitY=0.5;exitDx=0;exitDy=0;entryX=0.5;entryY=0;entryDx=0;entryDy=0;" edge="1" parent="1" source="PqPWKizBNkVSZj4csztq-22" target="PqPWKizBNkVSZj4csztq-26">
          <mxGeometry relative="1" as="geometry" />
        </mxCell>
        <mxCell id="PqPWKizBNkVSZj4csztq-22" value="&lt;font style=&quot;font-size: 18px&quot;&gt;老接口&lt;br&gt;（new Promise）&lt;/font&gt;" style="ellipse;whiteSpace=wrap;html=1;" vertex="1" parent="1">
          <mxGeometry x="540" y="800" width="120" height="80" as="geometry" />
        </mxCell>
        <mxCell id="PqPWKizBNkVSZj4csztq-28" style="edgeStyle=orthogonalEdgeStyle;rounded=0;orthogonalLoop=1;jettySize=auto;html=1;exitX=0;exitY=0.5;exitDx=0;exitDy=0;entryX=0.5;entryY=0;entryDx=0;entryDy=0;" edge="1" parent="1" source="PqPWKizBNkVSZj4csztq-23" target="PqPWKizBNkVSZj4csztq-26">
          <mxGeometry relative="1" as="geometry" />
        </mxCell>
        <mxCell id="PqPWKizBNkVSZj4csztq-23" value="&lt;font style=&quot;font-size: 18px&quot;&gt;新接口&lt;br&gt;（axios）&lt;/font&gt;" style="ellipse;whiteSpace=wrap;html=1;" vertex="1" parent="1">
          <mxGeometry x="780" y="800" width="120" height="80" as="geometry" />
        </mxCell>
        <mxCell id="PqPWKizBNkVSZj4csztq-32" style="edgeStyle=orthogonalEdgeStyle;rounded=0;orthogonalLoop=1;jettySize=auto;html=1;exitX=0.5;exitY=1;exitDx=0;exitDy=0;entryX=0.5;entryY=0;entryDx=0;entryDy=0;" edge="1" parent="1" source="PqPWKizBNkVSZj4csztq-26" target="PqPWKizBNkVSZj4csztq-30">
          <mxGeometry relative="1" as="geometry" />
        </mxCell>
        <mxCell id="PqPWKizBNkVSZj4csztq-34" style="edgeStyle=orthogonalEdgeStyle;rounded=0;orthogonalLoop=1;jettySize=auto;html=1;exitX=0.5;exitY=1;exitDx=0;exitDy=0;" edge="1" parent="1" source="PqPWKizBNkVSZj4csztq-26" target="PqPWKizBNkVSZj4csztq-30">
          <mxGeometry relative="1" as="geometry" />
        </mxCell>
        <mxCell id="PqPWKizBNkVSZj4csztq-36" style="edgeStyle=orthogonalEdgeStyle;rounded=0;orthogonalLoop=1;jettySize=auto;html=1;exitX=1;exitY=0.5;exitDx=0;exitDy=0;entryX=1;entryY=0.5;entryDx=0;entryDy=0;" edge="1" parent="1" source="PqPWKizBNkVSZj4csztq-26" target="PqPWKizBNkVSZj4csztq-4">
          <mxGeometry relative="1" as="geometry">
            <Array as="points">
              <mxPoint x="1070" y="920" />
              <mxPoint x="1070" y="370" />
            </Array>
          </mxGeometry>
        </mxCell>
        <mxCell id="PqPWKizBNkVSZj4csztq-26" value="&lt;font style=&quot;font-size: 18px&quot;&gt;中间层&lt;br&gt;（koa/nuxt）&lt;/font&gt;" style="rounded=1;whiteSpace=wrap;html=1;" vertex="1" parent="1">
          <mxGeometry x="660" y="890" width="120" height="60" as="geometry" />
        </mxCell>
        <mxCell id="PqPWKizBNkVSZj4csztq-35" style="edgeStyle=orthogonalEdgeStyle;rounded=0;orthogonalLoop=1;jettySize=auto;html=1;exitX=0.5;exitY=1;exitDx=0;exitDy=0;entryX=0.5;entryY=0;entryDx=0;entryDy=0;" edge="1" parent="1" source="PqPWKizBNkVSZj4csztq-30" target="PqPWKizBNkVSZj4csztq-33">
          <mxGeometry relative="1" as="geometry" />
        </mxCell>
        <mxCell id="PqPWKizBNkVSZj4csztq-30" value="&lt;font style=&quot;font-size: 18px&quot;&gt;nginx&lt;/font&gt;" style="rounded=1;whiteSpace=wrap;html=1;" vertex="1" parent="1">
          <mxGeometry x="660" y="990" width="120" height="60" as="geometry" />
        </mxCell>
        <mxCell id="PqPWKizBNkVSZj4csztq-33" value="&lt;font style=&quot;font-size: 24px&quot;&gt;后端&lt;/font&gt;" style="rounded=0;whiteSpace=wrap;html=1;" vertex="1" parent="1">
          <mxGeometry x="535" y="1120" width="370" height="60" as="geometry" />
        </mxCell>
        <mxCell id="PqPWKizBNkVSZj4csztq-51" style="edgeStyle=orthogonalEdgeStyle;rounded=0;orthogonalLoop=1;jettySize=auto;html=1;exitX=0.5;exitY=1;exitDx=0;exitDy=0;entryX=0;entryY=0.5;entryDx=0;entryDy=0;" edge="1" parent="1" source="PqPWKizBNkVSZj4csztq-39" target="PqPWKizBNkVSZj4csztq-15">
          <mxGeometry relative="1" as="geometry" />
        </mxCell>
        <mxCell id="PqPWKizBNkVSZj4csztq-39" value="&lt;font style=&quot;font-size: 18px&quot;&gt;前端监控系统&lt;/font&gt;" style="rounded=0;whiteSpace=wrap;html=1;" vertex="1" parent="1">
          <mxGeometry x="250" y="541" width="120" height="60" as="geometry" />
        </mxCell>
        <mxCell id="PqPWKizBNkVSZj4csztq-50" style="edgeStyle=orthogonalEdgeStyle;rounded=0;orthogonalLoop=1;jettySize=auto;html=1;exitX=0.5;exitY=1;exitDx=0;exitDy=0;entryX=1;entryY=0.5;entryDx=0;entryDy=0;" edge="1" parent="1" source="PqPWKizBNkVSZj4csztq-40" target="PqPWKizBNkVSZj4csztq-15">
          <mxGeometry relative="1" as="geometry" />
        </mxCell>
        <mxCell id="PqPWKizBNkVSZj4csztq-40" value="&lt;font style=&quot;font-size: 18px&quot;&gt;jest单元测试框架&lt;/font&gt;" style="rounded=0;whiteSpace=wrap;html=1;" vertex="1" parent="1">
          <mxGeometry x="1080" y="550" width="170" height="60" as="geometry" />
        </mxCell>
      </root>
    </mxGraphModel>
  </diagram>
</mxfile>
